<svg width="39" height="50" viewBox="0 0 39 50" fill="none" xmlns="http://www.w3.org/2000/svg">
<path d="M20.1461 36.6609C17.52 36.6609 15.3839 34.5247 15.3839 31.8987C15.3839 31.7735 15.3629 31.6588 15.3215 31.5445C14.9569 29.3145 13.0186 27.7723 10.4445 27.7723C7.75607 27.7723 5.56743 29.94 5.51518 32.6179C2.62871 33.1077 0.429688 35.619 0.429688 38.641V43.8826C0.429688 45.6019 1.15937 47.2487 2.43074 48.4055C3.55599 49.4269 5.03585 50 6.55758 50C6.75559 50 6.94313 49.9895 7.14115 49.9686C10.2465 49.6768 12.6746 46.9047 12.6746 43.6536V38.6614C12.6746 35.6498 10.476 33.1385 7.5996 32.6383C7.6515 31.1065 8.90237 29.8661 10.4445 29.8661C11.8615 29.8661 13.3 30.6268 13.3 32.3151C13.3 32.4089 13.3104 32.4922 13.3314 32.5755C13.675 36.0354 16.5933 38.7448 20.1466 38.7448C23.9188 38.7448 26.9932 35.6704 26.9932 31.8982V25.1768C33.4648 24.6451 38.5706 19.2159 38.5706 12.609C38.5706 5.65816 32.912 0 25.9504 0C18.989 0 13.3301 5.65861 13.3301 12.6202C13.3301 19.227 18.4365 24.6565 24.9075 25.188V31.9094C24.9079 34.5358 22.7717 36.6616 20.1453 36.6616L20.1461 36.6609ZM10.5901 43.6741C10.5901 45.8523 8.98511 47.7177 6.94262 47.9156C5.79639 48.0199 4.68119 47.6553 3.82682 46.8841C2.99335 46.1235 2.5035 45.0292 2.5035 43.904V40.9029H10.5796V43.6741L10.5901 43.6741ZM10.5901 38.6614V38.8281L2.51399 38.8285V38.6614C2.51399 36.4314 4.32703 34.6179 6.55753 34.6179C8.7771 34.6183 10.5901 36.4314 10.5901 38.6614ZM15.4152 12.6193C15.4152 6.81469 20.1356 2.08381 25.9508 2.08381C31.7655 2.08381 36.4863 6.81513 36.4863 12.6193C36.4863 18.424 31.755 23.1549 25.9508 23.1549C20.1356 23.1549 15.4152 18.434 15.4152 12.6193Z" fill="#43F6FF"/>
</svg>
