<svg width="40" height="50" viewBox="0 0 40 50" fill="none" xmlns="http://www.w3.org/2000/svg">
<path d="M1.64062 17.1875C1.22245 17.1872 0.878205 17.516 0.859375 17.9335V18.75C0.859375 19.1814 1.2092 19.5312 1.64062 19.5312C2.07205 19.5312 2.42187 19.1814 2.42187 18.75V18.004C2.4421 17.5781 2.1167 17.2147 1.69154 17.1875H1.64062Z" fill="#43F6FF"/>
<path d="M19.2194 1.5625H20.7466C21.178 1.57959 21.5418 1.24407 21.5592 0.812643C21.5763 0.380866 21.2408 0.0170893 20.809 0H19.1607C18.7293 0.00871928 18.3865 0.365518 18.3952 0.796946C18.4039 1.22837 18.7603 1.57122 19.1921 1.5625H19.2194Z" fill="#43F6FF"/>
<path d="M14.5319 2.37897C14.6048 2.37722 14.677 2.36537 14.7468 2.34374C15.2274 2.19516 15.7234 2.0703 16.2154 1.95312C16.6294 1.85546 16.8896 1.44461 16.8 1.02856C16.7107 0.612831 16.3051 0.344617 15.8872 0.425885C15.348 0.543072 14.813 0.679796 14.2894 0.839876H14.2898C13.8922 0.933697 13.6341 1.31805 13.6976 1.72157C13.7611 2.1251 14.1248 2.4118 14.5318 2.37901L14.5319 2.37897Z" fill="#43F6FF"/>
<path d="M10.1994 4.33577C10.3497 4.33856 10.4976 4.29776 10.6252 4.21859C11.0549 3.95282 11.5003 3.70311 11.9495 3.4764C12.141 3.38711 12.2881 3.22389 12.3576 3.02439C12.4266 2.82454 12.412 2.60517 12.3167 2.41648C12.2219 2.22779 12.0541 2.08585 11.8525 2.02271C11.6506 1.95959 11.4319 1.98086 11.2464 2.082C10.7581 2.32824 10.2736 2.60167 9.80484 2.89046C9.50839 3.07426 9.36958 3.4321 9.46479 3.76797C9.56 4.10349 9.86623 4.33507 10.215 4.33577L10.1994 4.33577Z" fill="#43F6FF"/>
<path d="M7.11006 7.08593C7.45778 6.71867 7.82504 6.36327 8.19997 6.03129C8.52363 5.74425 8.55327 5.24934 8.26624 4.92566C7.97955 4.602 7.48429 4.57236 7.16097 4.8594C6.77034 5.22282 6.35251 5.60926 5.98909 6.00788C5.73867 6.32317 5.76937 6.77727 6.05954 7.05627C6.34972 7.33527 6.80451 7.34821 7.11006 7.08593Z" fill="#43F6FF"/>
<path d="M25.227 2.34364C25.64 2.4699 26.0773 2.23727 26.2036 1.82397C26.3295 1.41103 26.0972 0.973669 25.6839 0.847366C25.1604 0.687276 24.6255 0.550562 24.0862 0.433375C23.6879 0.388732 23.3199 0.653098 23.2355 1.04478C23.1508 1.43679 23.3768 1.82917 23.758 1.95299C24.2505 2.06251 24.7464 2.18739 25.227 2.34364Z" fill="#43F6FF"/>
<path d="M38.2353 13.0311C38.0899 12.637 37.6592 12.4281 37.2598 12.5586C36.8604 12.6886 36.6355 13.1117 36.7509 13.5156C36.9072 13.9962 37.0439 14.4845 37.1416 14.9727C37.2375 15.3934 37.6563 15.6563 38.077 15.5604C38.4976 15.4645 38.761 15.0456 38.665 14.625C38.5555 14.0938 38.4069 13.5546 38.2353 13.0311L38.2353 13.0311Z" fill="#43F6FF"/>
<path d="M36.2425 11.1482C36.5232 11.152 36.7848 11.0048 36.9271 10.7621C37.0694 10.5197 37.0705 10.2197 36.9299 9.97628C36.6683 9.49183 36.383 9.01539 36.0782 8.55815C35.84 8.19787 35.3545 8.09917 34.9942 8.33738C34.6339 8.57594 34.5352 9.06108 34.7734 9.4214C35.0507 9.83923 35.3126 10.2769 35.5547 10.7223C35.6868 10.9811 35.952 11.145 36.2425 11.1482Z" fill="#43F6FF"/>
<path d="M29.3756 4.20308C29.5517 4.32271 29.7694 4.36526 29.9776 4.32096C30.1862 4.27632 30.3672 4.14867 30.4791 3.96731C30.5911 3.7863 30.6242 3.56692 30.5708 3.3608C30.5171 3.15432 30.3818 2.97889 30.1959 2.87496C29.731 2.58582 29.2465 2.31622 28.7544 2.07034C28.3718 1.89212 27.9167 2.04976 27.7269 2.42679C27.5368 2.80346 27.6805 3.26349 28.0513 3.46473C28.4928 3.69144 28.9383 3.93767 29.3756 4.20308Z" fill="#43F6FF"/>
<path d="M32.8908 7.06664C33.1914 7.35821 33.6685 7.361 33.9723 7.07291C34.2764 6.78448 34.2991 6.30806 34.0235 5.99238C33.6329 5.60175 33.2423 5.21113 32.8517 4.8439C32.528 4.55791 32.0341 4.58859 31.7482 4.91226C31.4622 5.23592 31.4929 5.72977 31.8165 6.01574C32.18 6.34777 32.5469 6.69933 32.8908 7.06664Z" fill="#43F6FF"/>
<path d="M3.74232 11.1714C4.02936 11.1714 4.29339 11.0138 4.42975 10.7613C4.66797 10.3197 4.9299 9.88237 5.211 9.46039C5.45026 9.09906 5.35156 8.61218 4.99023 8.37254C4.6289 8.13328 4.14166 8.23198 3.90237 8.59331C3.59754 9.05439 3.31259 9.53081 3.05485 10.0153H3.0545C2.92406 10.2573 2.93034 10.5503 3.07124 10.7864C3.21215 11.0229 3.4671 11.1676 3.74228 11.1676L3.74232 11.1714Z" fill="#43F6FF"/>
<path d="M2.83985 15.0035C2.9532 14.5114 3.08609 14.0232 3.23048 13.5426C3.34593 13.1387 3.12096 12.716 2.72162 12.5855C2.32227 12.4554 1.89154 12.664 1.74609 13.0585C1.57798 13.582 1.42975 14.1169 1.30454 14.6524L1.30489 14.652C1.20898 15.0726 1.47195 15.4915 1.89257 15.5877C2.31353 15.6837 2.73241 15.4203 2.82828 14.9997L2.83985 15.0035Z" fill="#43F6FF"/>
<path d="M39.1405 18.75V17.9335C39.1216 17.516 38.7774 17.1872 38.3592 17.1875H38.324C38.1168 17.1966 37.9215 17.2879 37.7816 17.4411C37.6418 17.5942 37.5685 17.7968 37.578 18.004V18.75C37.578 19.1814 37.9278 19.5312 38.3592 19.5312C38.7906 19.5312 39.1405 19.1814 39.1405 18.75Z" fill="#43F6FF"/>
<path d="M26.836 34.375H13.1646C12.7331 34.375 12.3833 34.7248 12.3833 35.1562C12.3833 35.5877 12.7331 35.9375 13.1646 35.9375H26.836C27.2674 35.9375 27.6172 35.5877 27.6172 35.1562C27.6172 34.7248 27.2674 34.375 26.836 34.375Z" fill="#43F6FF"/>
<path d="M26.836 37.5H13.1646C12.7331 37.5 12.3833 37.8498 12.3833 38.2812C12.3833 38.7127 12.7331 39.0625 13.1646 39.0625H26.836C27.2674 39.0625 27.6172 38.7127 27.6172 38.2812C27.6172 37.8498 27.2674 37.5 26.836 37.5Z" fill="#43F6FF"/>
<path d="M26.2772 19.4686C26.71 19.0826 26.9796 18.5461 27.0312 17.9686C27.011 17.5113 26.8279 17.0764 26.5157 16.742L25.4063 17.8591C25.4317 17.8929 25.4527 17.9295 25.4687 17.9686C25.3703 18.1367 25.2511 18.2919 25.1133 18.4297C24.829 18.7098 24.6069 19.0467 24.4607 19.4177C24.3572 19.8143 24.3373 20.2279 24.4021 20.6325C24.4217 20.8156 24.4217 21.0004 24.4021 21.1835C24.2302 21.2547 24.0506 21.3073 23.8671 21.3398C23.4608 21.3771 23.0719 21.5232 22.742 21.7632C22.412 22.0031 22.1529 22.3278 21.9921 22.7027C21.9042 22.8691 21.7982 23.025 21.6758 23.1676C21.5021 23.1223 21.3333 23.0592 21.1718 22.9804C20.8077 22.7927 20.4087 22.6822 19.9999 22.656C19.5911 22.6822 19.1921 22.7927 18.828 22.9804C18.6665 23.0581 18.4977 23.1195 18.3241 23.1638C18.2016 23.0212 18.0956 22.8653 18.0077 22.6989C17.8271 22.3379 17.5731 22.0184 17.2617 21.7614C16.9192 21.5427 16.5345 21.3976 16.1327 21.3356C15.9492 21.3031 15.7696 21.2508 15.5977 21.1793C15.5781 20.9962 15.5781 20.8117 15.5977 20.6286C15.6625 20.224 15.6427 19.8104 15.5391 19.4139C15.3929 19.0424 15.1708 18.7058 14.8865 18.4255C14.7519 18.2863 14.633 18.1332 14.5311 17.9686C14.626 17.7945 14.7459 17.6355 14.8865 17.496C15.1017 17.2724 15.2869 17.0213 15.4372 16.75C15.47 16.6509 15.5091 16.5543 15.5544 16.4608C15.6454 16.0768 15.6615 15.6789 15.6015 15.2889C15.582 15.1058 15.582 14.9213 15.6015 14.7382C15.7734 14.6667 15.9531 14.6144 16.1365 14.582C16.5383 14.5199 16.923 14.3748 17.2655 14.1561C17.577 13.8991 17.8309 13.5796 18.0116 13.2186C18.0994 13.0523 18.2055 12.8964 18.3279 12.7537C18.5016 12.798 18.6704 12.8594 18.8319 12.9372C19.1935 13.1311 19.5911 13.2483 19.9999 13.2811C20.4087 13.2549 20.8077 13.1444 21.1718 12.9567C21.3333 12.8789 21.5021 12.8176 21.6758 12.7733C21.7982 12.9159 21.9042 13.0718 21.9921 13.2382C22.1574 13.544 22.3695 13.822 22.6209 14.0623L23.7304 12.9452L23.6718 12.918V12.9176C23.5469 12.7785 23.4406 12.6236 23.3555 12.4569C23.1263 11.9323 22.7078 11.5139 22.1836 11.285C21.6353 11.1619 21.0606 11.2498 20.574 11.5309C20.3927 11.6209 20.1995 11.684 20 11.7185C19.8043 11.6805 19.6149 11.6146 19.4374 11.5232C18.9508 11.2421 18.3764 11.1542 17.8282 11.277C17.3036 11.5058 16.8848 11.9243 16.6563 12.4489C16.5712 12.6156 16.4648 12.7708 16.34 12.91C16.1656 12.9884 15.9818 13.0439 15.7931 13.0739C15.2253 13.1328 14.7008 13.4035 14.3241 13.8318C14.0336 14.319 13.9373 14.8979 14.0548 15.4528C14.081 15.6461 14.081 15.8417 14.0548 16.0349C13.9621 16.1912 13.8508 16.3356 13.7228 16.4646C13.2889 16.8514 13.0193 17.3895 12.9688 17.9685C13.0204 18.5461 13.29 19.0826 13.7228 19.4686C13.8508 19.5973 13.9621 19.7417 14.0548 19.8983C14.081 20.0915 14.081 20.2872 14.0548 20.4804C13.9373 21.0353 14.0336 21.6143 14.3241 22.1015C14.7008 22.5301 15.2253 22.8008 15.7931 22.859C15.9818 22.8894 16.1656 22.9448 16.34 23.0233C16.4648 23.1625 16.5712 23.3177 16.6563 23.484C16.8851 24.0086 17.3036 24.4271 17.8282 24.6559C18.3765 24.779 18.9509 24.6911 19.4374 24.41C19.6149 24.32 19.8043 24.2555 20 24.2185C20.1956 24.2566 20.385 24.3225 20.5625 24.4139C20.9207 24.5973 21.3131 24.7051 21.7148 24.7302C21.8701 24.7312 22.0242 24.7075 22.1717 24.6601C22.6963 24.4313 23.1151 24.0128 23.3436 23.4882C23.4287 23.3215 23.5351 23.1663 23.66 23.0271C23.8343 22.9487 24.0181 22.8932 24.2068 22.8632C24.7746 22.8043 25.2992 22.5336 25.6758 22.1053C25.9664 21.6181 26.0626 21.0392 25.9451 20.4843C25.9189 20.291 25.9189 20.0954 25.9451 19.9022C26.0375 19.7445 26.1492 19.5987 26.2772 19.4686Z" fill="#43F6FF"/>
<path d="M11.6093 23.2651L11.324 23.5504H11.3243C11.0893 23.7847 10.9574 24.1032 10.9574 24.4352C10.9574 24.7669 11.0893 25.0853 11.3243 25.3197L12.6525 26.644C12.8907 26.8703 13.2067 26.9966 13.5352 26.9966C13.8637 26.9966 14.1797 26.8703 14.4179 26.644L14.7032 26.3587V26.359C15.6638 26.9638 16.7206 27.3997 17.8282 27.6481V28.0388C17.8237 28.7258 18.3751 29.2877 19.0625 29.2964H20.9375C21.2692 29.2964 21.5869 29.1646 21.8213 28.9302C22.0557 28.6959 22.1875 28.3781 22.1875 28.0464V27.6558C23.2952 27.4075 24.352 26.9715 25.3125 26.3667L25.5978 26.652C25.836 26.8794 26.1531 27.0064 26.4823 27.0064C26.8119 27.0064 27.1289 26.8794 27.3671 26.652L28.6914 25.3277C28.9265 25.093 29.0583 24.7749 29.0583 24.4429C29.0583 24.1108 28.9265 23.7928 28.6914 23.558L28.4061 23.2727V23.2731C29.0109 22.3126 29.4472 21.2554 29.6952 20.1481H30.0859C30.7701 20.1436 31.324 19.5901 31.3282 18.9058V17.0308C31.3282 16.6991 31.1963 16.3814 30.962 16.147C30.7276 15.9126 30.4099 15.7808 30.0782 15.7808H29.6875C29.5557 15.2057 29.3726 14.6435 29.1407 14.1011L27.9335 15.3159C28.0842 15.7599 28.1965 16.216 28.2694 16.6793C28.3297 17.0629 28.6625 17.344 29.0506 17.3395H29.7656V18.5895H29.0311C28.6429 18.5846 28.3102 18.8661 28.2499 19.2497C28.0441 20.5677 27.5258 21.8174 26.7383 22.894C26.5098 23.2054 26.5429 23.6369 26.8164 23.9096L27.3361 24.4293L26.4533 25.312L25.9336 24.7924C25.6609 24.5189 25.2291 24.4858 24.918 24.7142C23.8413 25.5021 22.5917 26.0204 21.2734 26.2262C20.8897 26.2862 20.6086 26.6189 20.6131 27.0074V27.7339H19.375V26.9994C19.3796 26.6112 19.0984 26.2785 18.7148 26.2182C17.3968 26.0127 16.1471 25.4945 15.0705 24.7066C14.7591 24.4781 14.3273 24.5112 14.0549 24.7847L13.5352 25.3044L12.6525 24.4216L13.1722 23.9019H13.1718C13.4456 23.6292 13.4787 23.1974 13.2499 22.8863C12.4624 21.8094 11.9441 20.5596 11.7383 19.2417C11.6783 18.858 11.3453 18.5769 10.9571 18.5815H10.2344V17.3433H10.9689C11.3571 17.3479 11.6898 17.0668 11.7502 16.6831C11.956 15.3651 12.4742 14.1154 13.2618 13.0388C13.4902 12.7274 13.4571 12.2956 13.1837 12.0232L12.664 11.5035L13.5467 10.6208L14.0664 11.1405V11.1401C14.3391 11.4139 14.7709 11.447 15.082 11.2182C16.1587 10.4307 17.4084 9.91207 18.7267 9.70663C19.1103 9.64664 19.3914 9.31357 19.3869 8.92538V8.20272H20.6369V8.93723C20.632 9.32542 20.9131 9.65814 21.2968 9.71848C22.6152 9.92391 23.8648 10.4422 24.9414 11.2301C25.0495 11.3089 25.1758 11.3588 25.3087 11.3745L27.3595 9.30797V9.30832C27.1213 9.08161 26.8053 8.95536 26.4767 8.95536C26.1478 8.95536 25.8318 9.08162 25.5936 9.30832L25.3083 9.59361L25.3087 9.59326C24.3482 8.98849 23.291 8.55255 22.1837 8.30415V7.91353C22.19 7.57871 22.0616 7.2554 21.8272 7.01576C21.5929 6.7765 21.2724 6.64118 20.9375 6.64014H19.0625C18.3723 6.64014 17.8125 7.19991 17.8125 7.89014V8.28076C16.7049 8.52908 15.6481 8.96506 14.6875 9.56987L14.4022 9.28457C14.164 9.05717 13.847 8.93022 13.5178 8.93022C13.1882 8.93022 12.8711 9.05717 12.6329 9.28457L11.3282 10.6207C11.0931 10.8551 10.9613 11.1735 10.9613 11.5056C10.9613 11.8373 11.0931 12.1557 11.3282 12.3901L11.6135 12.6754C11.0087 13.6359 10.5724 14.6927 10.3244 15.8003H9.93375C9.24632 15.7937 8.68268 16.3434 8.67188 17.0308V18.9058C8.67188 19.596 9.23165 20.1558 9.92187 20.1558H10.3125C10.565 21.2587 11.0035 22.3098 11.6093 23.2651Z" fill="#43F6FF"/>
<path d="M18.1879 16.9295C17.8838 16.6229 17.3889 16.6212 17.0827 16.9257C16.7761 17.2298 16.7744 17.7247 17.0785 18.0309L19.5161 20.4842C19.6629 20.6321 19.8624 20.7151 20.071 20.7151C20.2792 20.7151 20.4787 20.6321 20.6255 20.4842L29.9541 11.086C30.2582 10.7794 30.2565 10.2845 29.9499 9.98038C29.6437 9.67626 29.1488 9.678 28.8446 9.98422L20.0712 18.8242L18.1879 16.9295Z" fill="#43F6FF"/>
<path d="M11.4576 32.6911C11.5824 32.7702 11.7275 32.8121 11.8754 32.8121H28.1254C28.2733 32.8121 28.4183 32.7702 28.5432 32.6911C31.4803 30.8391 33.7357 28.0828 34.97 24.8374C36.2043 21.592 36.3504 18.0336 35.3864 14.6981C34.4224 11.3627 32.4006 8.43036 29.6254 6.34366C26.8506 4.25697 23.4724 3.12866 20.0005 3.12866C16.5285 3.12866 13.1502 4.25697 10.3755 6.34366C7.60028 8.43036 5.5784 11.3625 4.61447 14.6981C3.65054 18.0337 3.7966 21.5923 5.03091 24.8374C6.2652 28.0828 8.52073 30.8391 11.4577 32.6911H11.4576ZM20.0004 4.6875C24.1825 4.68611 28.16 6.49661 30.9058 9.65089C33.6516 12.8052 34.8967 16.9943 34.3192 21.1357C33.7419 25.2778 31.3985 28.9667 27.8948 31.25H12.1055C8.60175 28.967 6.25836 25.2779 5.68112 21.1357C5.10355 16.994 6.34868 12.8049 9.09452 9.65089C11.8404 6.49687 15.8178 4.68616 19.9999 4.6875H20.0004Z" fill="#43F6FF"/>
<path d="M35.8208 49.2187V41.4062H37.1879C37.6193 41.4062 37.9692 41.0564 37.9692 40.625C37.9692 40.1936 37.6193 39.8438 37.1879 39.8438H35.0395C34.6081 39.8438 34.2583 40.1936 34.2583 40.625V48.4375H20.7815V44.5312V44.4922C22.8967 44.3317 24.8897 43.4361 26.4142 41.9608C26.6398 41.7375 26.7075 41.3996 26.5858 41.1066C26.464 40.8137 26.177 40.6232 25.8596 40.625H14.1409C13.8242 40.6246 13.5385 40.8157 13.4179 41.1084C13.2972 41.4013 13.3652 41.7379 13.5901 41.9608C15.1129 43.4367 17.1043 44.3324 19.219 44.4922V44.5313V49.2188C19.219 49.4259 19.3013 49.6247 19.4478 49.7712C19.5943 49.9177 19.7931 50 20.0002 50H35.0395C35.2467 50 35.4455 49.9177 35.592 49.7712C35.7385 49.6247 35.8208 49.4259 35.8208 49.2187ZM16.5824 42.1875H23.4145C21.2563 43.2296 18.7406 43.2296 16.5824 42.1875Z" fill="#43F6FF"/>
</svg>
