<svg width="51" height="43" viewBox="0 0 51 43" fill="none" xmlns="http://www.w3.org/2000/svg">
<path d="M17.9643 16.61C16.5723 16.61 15.2753 15.956 14.3082 14.7708C13.4025 13.6583 12.8994 12.2161 12.8994 10.7122C12.8994 9.18053 13.4249 7.89476 14.4256 6.99468C15.3368 6.17289 16.5612 5.73682 17.9643 5.73682C19.3674 5.73682 20.5917 6.17286 21.503 6.99468C22.4981 7.89473 23.0292 9.18053 23.0292 10.7122C23.0292 12.2161 22.5316 13.6528 21.6204 14.7652C20.6533 15.9559 19.3508 16.61 17.9643 16.61ZM17.9643 7.97296C17.1146 7.97296 15.1356 8.2413 15.1356 10.7122C15.1356 11.6906 15.4654 12.6521 16.0412 13.3565C16.5779 14.0161 17.2599 14.3739 17.9642 14.3739C18.6686 14.3739 19.3506 14.0105 19.8873 13.3509C20.4631 12.6465 20.7929 11.6849 20.7929 10.7123C20.7929 8.24131 18.814 7.97297 17.9642 7.97297L17.9643 7.97296Z" fill="#43F6FF"/>
<path d="M10.9261 26.349H8.68994V23.2799C8.68994 21.6978 9.62353 20.2612 11.0714 19.6183L15.2978 17.7399C15.8512 17.5051 16.483 17.6728 16.8463 18.148L17.9699 19.6183L19.1159 18.1424C19.4793 17.6728 20.111 17.5051 20.6589 17.7399L20.6757 17.7455L24.8629 19.6127C26.3051 20.2556 27.2387 21.6923 27.2387 23.2744V26.3434H25.0026V23.2744C25.0026 22.5756 24.5889 21.9383 23.9516 21.6587L20.4354 20.0935L17.9533 23.2911L15.5158 20.0878L11.9772 21.6587C11.3399 21.9438 10.9262 22.5755 10.9262 23.2744L10.9261 26.349Z" fill="#43F6FF"/>
<path d="M16.8408 21.4514H19.077V26.343H16.8408V21.4514Z" fill="#43F6FF"/>
<path d="M41.3826 15.8783C40.013 15.8783 38.7384 15.2354 37.7824 14.067C36.8879 12.9712 36.396 11.5569 36.396 10.0811C36.396 8.57163 36.9159 7.30825 37.8998 6.42494C38.7831 5.62552 40.0241 5.18384 41.3826 5.18384C42.741 5.18384 43.9821 5.62547 44.8653 6.42494C45.8492 7.3138 46.3691 8.57726 46.3691 10.0811C46.3691 11.557 45.8772 12.9712 44.9828 14.067C44.0268 15.2354 42.7523 15.8783 41.3826 15.8783ZM41.3826 7.42008C40.5552 7.42008 38.6321 7.67724 38.6321 10.0811C38.6321 11.0314 38.9508 11.9651 39.5154 12.6526C40.0353 13.2899 40.7006 13.6421 41.3826 13.6421C42.0647 13.6421 42.7299 13.2899 43.2499 12.6526C43.8089 11.965 44.1331 11.0314 44.1331 10.0811C44.1331 7.61012 42.0256 7.42008 41.3827 7.42008H41.3826Z" fill="#43F6FF"/>
<path d="M50.4889 25.2307H48.2528V22.3293C48.2528 21.6529 47.8559 21.0435 47.2409 20.7696L43.8141 19.2434L41.3823 22.3796L38.984 19.2434L35.5795 20.7696C35.2943 20.8982 35.0484 21.105 34.8695 21.3622L33.0303 20.0875C33.4384 19.495 34.003 19.0253 34.6627 18.7291L38.766 16.8899C39.3195 16.6551 39.9512 16.8228 40.3145 17.298L41.399 18.7123L42.5003 17.2924C42.8637 16.8172 43.5177 16.6551 44.06 16.901L48.1577 18.7291C49.5777 19.3608 50.5001 20.7752 50.5001 22.3348V25.2306L50.4889 25.2307Z" fill="#43F6FF"/>
<path d="M40.2646 20.5405H42.5008V25.2309H40.2646V20.5405Z" fill="#43F6FF"/>
<path d="M17.948 34.8959C13.2856 34.8959 8.90831 33.0791 5.60955 29.7864C2.31682 26.4936 0.5 22.1108 0.5 17.448C0.5 12.7856 2.31682 8.40831 5.60955 5.10955C8.90228 1.81682 13.2851 0 17.948 0C22.6103 0 26.9876 1.81682 30.2864 5.10955C33.5791 8.40228 35.3959 12.7851 35.3959 17.448C35.3959 22.1103 33.5791 26.4876 30.2864 29.7864C26.988 33.0791 22.6108 34.8959 17.948 34.8959ZM17.948 2.23747C9.56244 2.23747 2.73706 9.06326 2.73706 17.4484C2.73706 25.8335 9.56285 32.6592 17.948 32.6592C26.3331 32.6592 33.1588 25.8335 33.1588 17.4484C33.1588 9.06326 26.3331 2.23747 17.948 2.23747Z" fill="#43F6FF"/>
<path d="M30.2821 28.2034L33.1967 31.1235L31.6138 32.7032L28.6992 29.783L30.2821 28.2034Z" fill="#43F6FF"/>
<path d="M39.7167 42.8459C38.7887 42.8459 37.8608 42.4937 37.1563 41.7837L29.8777 34.5051C29.4249 34.0523 29.4249 33.3088 29.8777 32.8559L33.3549 29.3787C33.8078 28.9259 34.5456 28.9259 35.0041 29.3787L42.2828 36.6573C43.6971 38.0717 43.6971 40.3693 42.2828 41.7836C41.5728 42.4936 40.6448 42.8459 39.7167 42.8459ZM32.2144 33.6833L38.7383 40.2072C39.2806 40.7495 40.1583 40.7495 40.7005 40.2072C41.2428 39.665 41.2428 38.7872 40.7005 38.2451L34.1766 31.7211L32.2144 33.6833Z" fill="#43F6FF"/>
</svg>
