<svg width="51" height="28" viewBox="0 0 51 28" fill="none" xmlns="http://www.w3.org/2000/svg">
<path d="M25.5 6.01416C19.655 6.01416 14.9028 10.7671 14.9028 16.6113C14.9028 22.4563 19.6558 27.2085 25.5 27.2085C31.345 27.2085 36.0972 22.4563 36.0972 16.6113C36.0972 10.7663 31.3442 6.01416 25.5 6.01416ZM25.5 7.37596C30.6087 7.37596 34.7359 11.5031 34.7359 16.6118C34.7359 21.7205 30.6087 25.8473 25.5 25.8473C20.3913 25.8473 16.2641 21.7209 16.2641 16.6118C16.2641 11.5031 20.3913 7.37596 25.5 7.37596Z" fill="#43F6FF"/>
<path d="M23.9821 14.1441C23.9821 14.7157 23.7551 15.2644 23.3505 15.6686C22.9463 16.0732 22.3976 16.3003 21.826 16.3003C21.254 16.3003 20.7053 16.0732 20.3011 15.6686C19.8965 15.2644 19.6694 14.7157 19.6694 14.1441C19.6694 13.5721 19.8965 13.0234 20.3011 12.6192C20.7053 12.2146 21.254 11.9875 21.826 11.9875C22.3976 11.9875 22.9463 12.2146 23.3505 12.6192C23.7551 13.0234 23.9821 13.5721 23.9821 14.1441Z" fill="#43F6FF"/>
<path d="M31.3464 14.1719C31.3464 14.7439 31.1189 15.2923 30.7147 15.6964C30.3102 16.101 29.7618 16.3281 29.1898 16.3281C28.6179 16.3281 28.0695 16.101 27.6654 15.6964C27.2608 15.2922 27.0337 14.7439 27.0337 14.1719C27.0337 13.6 27.2608 13.0516 27.6654 12.647C28.0695 12.2429 28.6179 12.0154 29.1898 12.0154C29.7618 12.0154 30.3102 12.2429 30.7147 12.647C31.1189 13.0516 31.3464 13.6 31.3464 14.1719Z" fill="#43F6FF"/>
<path d="M30.0654 18.6719C29.3574 20.6251 27.5469 21.912 25.519 21.9209C23.4911 21.9298 21.6701 20.6587 20.9454 18.7122L19.6689 19.1869C20.587 21.6539 22.9226 23.2942 25.5248 23.283C28.1269 23.2714 30.4483 21.6112 31.3454 19.1361L30.065 18.6719L30.0654 18.6719Z" fill="#43F6FF"/>
<path d="M12.0289 0.0419788C10.1218 -0.128139 8.15092 0.21559 6.33149 1.13166C1.47973 3.575 -0.740794 9.308 1.19918 14.3816C3.13915 19.4555 8.61828 22.2444 13.8618 20.8277L13.5068 19.5128C8.92631 20.7506 4.16562 18.3274 2.47118 13.8953C0.776549 9.46316 2.70602 4.48194 6.94398 2.34772C11.1819 0.213605 16.3329 1.62925 18.8844 5.62965L20.0326 4.89723C18.207 2.03495 15.2064 0.324834 12.0283 0.0416019L12.0289 0.0419788Z" fill="#43F6FF"/>
<path d="M9.57943 8.12824C9.57943 8.70022 9.35233 9.24857 8.94815 9.65273C8.54358 10.0573 7.99523 10.2844 7.42326 10.2844C6.85129 10.2844 6.30293 10.0573 5.89837 9.65273C5.49418 9.24855 5.26709 8.7002 5.26709 8.12824C5.26709 7.55625 5.49418 7.0079 5.89837 6.60334C6.30294 6.19916 6.85129 5.97168 7.42326 5.97168C7.99523 5.97168 8.54359 6.19916 8.94815 6.60334C9.35233 7.00791 9.57943 7.55626 9.57943 8.12824Z" fill="#43F6FF"/>
<path d="M16.9436 8.1569C16.9436 8.72888 16.7165 9.27723 16.3119 9.68179C15.9077 10.086 15.359 10.3131 14.7874 10.3131C14.2154 10.3131 13.6667 10.086 13.2625 9.68179C12.858 9.27722 12.6309 8.72887 12.6309 8.1569C12.6309 7.58493 12.858 7.03657 13.2625 6.63201C13.6667 6.22782 14.2154 6.00073 14.7874 6.00073C15.359 6.00073 15.9077 6.22782 16.3119 6.63201C16.7165 7.03658 16.9436 7.58493 16.9436 8.1569Z" fill="#43F6FF"/>
<path d="M6.54259 12.6978L5.26611 13.1725C6.43833 16.3223 9.85944 18.0018 13.0186 16.959L12.5915 15.6654C10.1195 16.4815 7.4696 15.1895 6.54223 12.6978L6.54259 12.6978Z" fill="#43F6FF"/>
<path d="M38.384 8.12824C38.384 8.70022 38.1565 9.24857 37.7523 9.65273C37.3478 10.0573 36.7994 10.2844 36.2274 10.2844C35.6555 10.2844 35.1071 10.0573 34.703 9.65273C34.2984 9.24855 34.0713 8.7002 34.0713 8.12824C34.0713 7.55625 34.2984 7.0079 34.703 6.60334C35.1071 6.19916 35.6555 5.97168 36.2274 5.97168C36.7994 5.97168 37.3478 6.19916 37.7523 6.60334C38.1565 7.00791 38.384 7.55626 38.384 8.12824Z" fill="#43F6FF"/>
<path d="M45.7478 8.1569C45.7478 8.72888 45.5207 9.27723 45.1165 9.68179C44.7119 10.086 44.1636 10.3131 43.5916 10.3131C43.0196 10.3131 42.4713 10.086 42.0667 9.68179C41.6625 9.27722 41.4351 8.72887 41.4351 8.1569C41.4351 7.58493 41.6625 7.03657 42.0667 6.63201C42.4713 6.22782 43.0196 6.00073 43.5916 6.00073C44.1636 6.00073 44.7119 6.22782 45.1165 6.63201C45.5207 7.03658 45.7478 7.58493 45.7478 8.1569Z" fill="#43F6FF"/>
<path d="M39.1568 0.0270208C41.06 -0.109 43.0173 0.266127 44.8154 1.20668C49.6102 3.71549 51.7462 9.45009 49.761 14.4844C47.7761 19.5183 42.3004 22.2519 37.0835 20.813L37.4458 19.4997C42.0023 20.7565 46.7596 18.3817 48.4934 13.9849C50.2272 9.58768 48.3713 4.60487 44.1834 2.41352C39.9954 0.222059 34.8433 1.5381 32.2192 5.46955L31.0864 4.71349C32.964 1.90051 35.9843 0.253895 39.1558 0.02721L39.1568 0.0270208Z" fill="#43F6FF"/>
<path d="M41.4204 8.12824C41.4204 8.70022 41.6475 9.24857 42.0521 9.65273C42.4563 10.0573 43.005 10.2844 43.5766 10.2844C44.1485 10.2844 44.6973 10.0573 45.1015 9.65273C45.506 9.24855 45.7331 8.7002 45.7331 8.12824C45.7331 7.55625 45.506 7.0079 45.1015 6.60334C44.6973 6.19916 44.1485 5.97168 43.5766 5.97168C43.005 5.97168 42.4562 6.19916 42.0521 6.60334C41.6475 7.00791 41.4204 7.55626 41.4204 8.12824Z" fill="#43F6FF"/>
<path d="M34.0566 8.1569C34.0566 8.72888 34.2841 9.27723 34.6883 9.68179C35.0929 10.086 35.6412 10.3131 36.2132 10.3131C36.7852 10.3131 37.3335 10.086 37.7377 9.68179C38.1423 9.27722 38.3694 8.72887 38.3694 8.1569C38.3694 7.58493 38.1423 7.03657 37.7377 6.63201C37.3335 6.22782 36.7852 6.00073 36.2132 6.00073C35.6412 6.00073 35.0929 6.22782 34.6883 6.63201C34.2841 7.03658 34.0566 7.58493 34.0566 8.1569Z" fill="#43F6FF"/>
<path d="M44.4571 12.6978L45.7336 13.1725C44.5657 16.311 41.1632 17.9913 38.0103 16.9683L38.4311 15.6728C40.8981 16.4734 43.5333 15.1806 44.4571 12.6978Z" fill="#43F6FF"/>
</svg>
