<svg width="206" height="255" viewBox="0 0 206 255" fill="none" xmlns="http://www.w3.org/2000/svg">
<path d="M78.4013 17.8234C79.0217 18.3067 79.4859 18.9622 79.7358 19.708C79.9857 20.4537 80.0102 21.2565 79.8062 22.0161C79.6023 22.7757 79.1789 23.4584 78.5891 23.9786C77.9993 24.4989 77.2692 24.8338 76.4901 24.9413C75.711 25.0489 74.9174 24.9243 74.2087 24.5833C73.5 24.2423 72.9076 23.6999 72.5054 23.024C72.1033 22.3481 71.9094 21.5686 71.9479 20.7831C71.9864 19.9975 72.2556 19.2408 72.7219 18.6074C73.372 17.7516 74.3349 17.1886 75.3996 17.0416C76.4642 16.8946 77.5436 17.1758 78.4013 17.8234Z" fill="#75D9FF"/>
<path d="M114.838 87.5467C115.75 88.237 116.436 89.1821 116.81 90.2624C117.184 91.3428 117.23 92.5099 116.941 93.616C116.651 94.7222 116.041 95.7178 115.186 96.4768C114.331 97.2359 113.27 97.7243 112.137 97.8803C111.004 98.0362 109.851 97.8528 108.823 97.3532C107.794 96.8535 106.937 96.0601 106.36 95.0733C105.782 94.0864 105.511 92.9505 105.579 91.8092C105.647 90.6679 106.052 89.5725 106.743 88.6615C107.2 88.0548 107.772 87.5445 108.427 87.1598C109.082 86.7751 109.806 86.5238 110.559 86.4202C111.311 86.3165 112.077 86.3627 112.811 86.556C113.545 86.7494 114.234 87.0861 114.838 87.5467Z" stroke="#75D9FF" stroke-width="0.71" stroke-miterlimit="10"/>
<path d="M38.5232 124.959L-21.3425 99.3414" stroke="#75D9FF" stroke-width="0.71" stroke-miterlimit="10"/>
<path d="M166.141 245.806C166.43 246.911 166.385 248.078 166.011 249.157C165.638 250.237 164.953 251.182 164.043 251.873C163.133 252.563 162.038 252.969 160.898 253.038C159.757 253.107 158.622 252.836 157.635 252.26C156.648 251.685 155.854 250.829 155.354 249.802C154.853 248.775 154.667 247.623 154.821 246.491C154.975 245.359 155.461 244.298 156.217 243.441C156.973 242.585 157.967 241.972 159.071 241.68C160.556 241.291 162.134 241.506 163.46 242.28C164.786 243.054 165.75 244.322 166.141 245.806Z" fill="#75D9FF"/>
<path d="M157.328 178.154L160.08 243.218" stroke="#75D9FF" stroke-width="0.71" stroke-miterlimit="10"/>
<path d="M45.3031 128.469L105.868 94.5521" stroke="#75D9FF" stroke-width="0.71" stroke-miterlimit="10"/>
<path d="M77.9681 24.3283L108.961 86.4397" stroke="#75D9FF" stroke-width="0.71" stroke-linecap="round" stroke-linejoin="round" stroke-dasharray="0.56 2.82"/>
<path d="M74.324 201.179C73.702 200.696 73.2361 200.041 72.9847 199.296C72.7333 198.55 72.7074 197.746 72.9105 196.986C73.1135 196.225 73.5364 195.542 74.1261 195.021C74.7158 194.499 75.4463 194.164 76.2259 194.056C77.0055 193.948 77.7996 194.072 78.5089 194.413C79.2182 194.754 79.8111 195.297 80.2133 195.974C80.6156 196.65 80.8092 197.43 80.7701 198.216C80.731 199.002 80.4609 199.76 79.9936 200.393C79.3439 201.246 78.3831 201.808 77.3209 201.955C76.2586 202.102 75.1812 201.823 74.324 201.179Z" fill="#75D9FF"/>
<path d="M74.7475 194.672L43.7641 132.562" stroke="#75D9FF" stroke-width="0.71" stroke-linecap="round" stroke-linejoin="round" stroke-dasharray="0.56 2.82"/>
<path d="M147.438 179.974L80.1437 197.01" stroke="#75D9FF" stroke-width="0.71" stroke-linecap="round" stroke-linejoin="round" stroke-dasharray="0.56 2.82"/>
<path d="M155.934 184.2C154.474 183.92 153.129 183.213 152.07 182.168C151.011 181.124 150.286 179.789 149.986 178.332C149.686 176.875 149.824 175.362 150.384 173.984C150.944 172.606 151.9 171.425 153.131 170.591C154.362 169.756 155.813 169.305 157.3 169.295C158.787 169.285 160.244 169.716 161.486 170.534C162.729 171.352 163.7 172.519 164.279 173.89C164.857 175.26 165.017 176.771 164.737 178.231C164.361 180.19 163.222 181.919 161.572 183.039C159.921 184.158 157.893 184.576 155.934 184.2Z" fill="#75D9FF"/>
</svg>
