<svg width="73" height="125" viewBox="0 0 73 125" fill="none" xmlns="http://www.w3.org/2000/svg">
<path opacity="0.65" d="M36.74 13.5299L22.5 38.1999L8.45001 62.5399H8.25L8.34998 62.6999L8.25 62.8699H8.45001L22.5 87.2099L36.74 111.88V13.5299Z" fill="#75D9FF"/>
<path opacity="0.25" d="M37.02 13.5299L51.26 38.1999L65.31 62.5399H65.51L65.41 62.6999L65.51 62.8699H65.31L51.26 87.2099L37.02 111.88V13.5299Z" fill="#D0CEFF"/>
<path d="M72.37 62.7L72.49 62.49H72.25L54.61 31.95L36.74 1L18.87 31.95L1.23999 62.49H1L1.12 62.7L1 62.91H1.23999L18.87 93.45L36.74 124.41L54.61 93.45L72.25 62.91H72.49L72.37 62.7Z" stroke="white" stroke-width="0.57" stroke-miterlimit="10"/>
</svg>
