  <svg
      width="35"
      height="35"
      viewBox="0 0 35 35"
      fill="none"
      xmlns="http://www.w3.org/2000/svg"
    >
      <path
        d="M22.1994 34.3735C18.9467 35.2264 15.5139 35.0982 12.3341 34.005C9.15432 32.9119 6.37002 30.9028 4.33253 28.2312C2.29503 25.5596 1.09563 22.3453 0.885667 18.9938C0.6757 15.6423 1.46457 12.3038 3.15275 9.39945C4.84092 6.49515 7.35276 4.15521 10.3713 2.67487C13.3899 1.19453 16.7799 0.640129 20.1137 1.0816C23.4475 1.52307 26.5756 2.94065 29.1034 5.15546C31.6312 7.37028 33.4454 10.2831 34.3172 13.5264C34.8946 15.6897 35.0391 17.9456 34.7425 20.1648C34.4458 22.384 33.7137 24.523 32.5882 26.4594C31.4626 28.3958 29.9657 30.0915 28.183 31.4495C26.4004 32.8075 24.3671 33.8011 22.1994 34.3735Z"
        fill="url(#paint0_radial_4_614)"
        
      />
      <defs  >
        <radialGradient
          id="paint0_radial_4_614"
          cx="0"
          cy="0"
          r="1"
      
          gradientUnits="userSpaceOnUse"
          gradientTransform="translate(18.1191 17.9709) rotate(74.8489) scale(17.0001 17.0216)"
        >
          <stop stop-color="white" />
          <stop offset="0.26" stop-color="#0088EC" />
      

        </radialGradient>
      </defs>
    </svg>