<svg width="44" height="43" viewBox="0 0 44 43" fill="none" xmlns="http://www.w3.org/2000/svg">
<g style="mix-blend-mode:screen" filter="url(#filter0_f_4_380)">
<path d="M25.4476 34.2916C22.929 34.9424 20.2739 34.8338 17.8171 33.9794C15.3604 33.125 13.2121 31.5632 11.6433 29.491C10.0745 27.4188 9.15548 24.929 9.00224 22.3358C8.849 19.7426 9.46838 17.1622 10.7822 14.9201C12.0961 12.6781 14.0455 10.8748 16.3846 9.73786C18.7237 8.60092 21.3477 8.18124 23.9254 8.53178C26.5031 8.88232 28.919 9.98738 30.8685 11.7075C32.8179 13.4276 34.2134 15.6858 34.879 18.197C35.327 19.8723 35.438 21.6197 35.2056 23.3381C34.9732 25.0565 34.402 26.7119 33.525 28.2085C32.648 29.7051 31.4825 31.0133 30.0961 32.0574C28.7097 33.1016 27.1297 33.8609 25.4476 34.2916Z" fill="url(#paint0_radial_4_380)" style="mix-blend-mode:screen"/>
</g>
<defs>
<filter id="filter0_f_4_380" x="0.97937" y="0.411499" width="42.3445" height="42.2995" filterUnits="userSpaceOnUse" color-interpolation-filters="sRGB">
<feFlood flood-opacity="0" result="BackgroundImageFix"/>
<feBlend mode="normal" in="SourceGraphic" in2="BackgroundImageFix" result="shape"/>
<feGaussianBlur stdDeviation="4" result="effect1_foregroundBlur_4_380"/>
</filter>
<radialGradient id="paint0_radial_4_380" cx="0" cy="0" r="1" gradientUnits="userSpaceOnUse" gradientTransform="translate(22.4041 21.6372) rotate(74.8489) scale(13.151 13.1676)">
<stop stop-color="white"/>
<stop offset="0.9998" stop-color="#0F8FED"/>
<stop offset="0.9999" stop-color="#058AEC"/>
<stop offset="1"/>
</radialGradient>
</defs>
</svg>
