<svg width="48" height="48" viewBox="0 0 48 48" fill="none" xmlns="http://www.w3.org/2000/svg">
<path d="M47.8955 37.9996L44.8253 28.7881C46.4695 25.897 47.3365 22.6173 47.3365 19.2767C47.3365 8.6513 38.692 0.00683594 28.0666 0.00683594C21.4751 0.00683594 15.4114 3.38417 11.8965 8.80965C14.3669 7.77718 17.0764 7.20456 19.9171 7.20456C31.4255 7.20616 40.7873 16.568 40.7873 28.0747C40.7873 31.2705 40.0636 34.2992 38.7736 37.0095L46.9814 39.1696C47.0494 39.1872 47.1173 39.196 47.1853 39.196C47.1901 39.196 47.1965 39.1952 47.2013 39.196C47.6436 39.196 48.0011 38.8377 48.0011 38.3963C48.0003 38.2515 47.9627 38.1164 47.8955 37.9996Z" fill="#4D97B5"/>
<path d="M19.9179 8.80566C9.29249 8.80566 0.648031 17.4501 0.648031 28.0748C0.648031 31.4145 1.51496 34.6943 3.15924 37.5861L0.0410232 46.94C-0.0517475 47.2191 0.0154313 47.5254 0.216168 47.7397C0.369719 47.9037 0.581652 47.9933 0.799983 47.9933C0.867961 47.9933 0.93594 47.9845 1.00392 47.9669L11.2311 45.2757C13.9102 46.6305 16.9069 47.3447 19.9179 47.3447C30.5434 47.3447 39.1878 38.7002 39.1878 28.0748C39.1878 17.4493 30.5434 8.80566 19.9179 8.80566ZM32.9866 21.4329C32.865 21.4992 32.7331 21.5312 32.6035 21.5312C32.3204 21.5312 32.0469 21.3809 31.9013 21.1162C29.666 17.0399 25.4114 14.1752 20.7984 13.6393C20.3594 13.5889 20.0459 13.1915 20.0963 12.7532C20.1467 12.315 20.5425 11.9999 20.9824 12.051C26.1016 12.6452 30.8225 15.8242 33.3033 20.3468C33.516 20.7347 33.3737 21.2209 32.9866 21.4329Z" fill="#4D97B5"/>
</svg>
