<svg width="50" height="51" viewBox="0 0 50 51" fill="none" xmlns="http://www.w3.org/2000/svg">
<path fill-rule="evenodd" clip-rule="evenodd" d="M36.58 13.4563C37.4785 14.0988 37.686 15.348 37.0435 16.2465L29.0435 27.434C28.401 28.3325 27.1518 28.54 26.2533 27.8975C25.3548 27.255 25.1473 26.0058 25.7898 25.1073L33.7898 13.9198C34.4323 13.0213 35.6815 12.8138 36.58 13.4563Z" fill="#4D97B5"/>
<path fill-rule="evenodd" clip-rule="evenodd" d="M25.0002 27.5C24.4255 27.5 23.8744 27.7283 23.4681 28.1346C23.0618 28.5409 22.8335 29.092 22.8335 29.6667C22.8335 30.7712 21.9381 31.6667 20.8335 31.6667C19.7289 31.6667 18.8335 30.7712 18.8335 29.6667C18.8335 28.0312 19.4832 26.4626 20.6397 25.3062C21.7961 24.1497 23.3647 23.5 25.0002 23.5C26.6357 23.5 28.2042 24.1497 29.3607 25.3062C30.5171 26.4626 31.1668 28.0312 31.1668 29.6667C31.1668 30.7712 30.2714 31.6667 29.1668 31.6667C28.0623 31.6667 27.1668 30.7712 27.1668 29.6667C27.1668 29.092 26.9386 28.5409 26.5322 28.1346C26.1259 27.7283 25.5748 27.5 25.0002 27.5Z" fill="#4D97B5"/>
<path fill-rule="evenodd" clip-rule="evenodd" d="M8.33333 8.75C8.31123 8.75 8.29004 8.75878 8.27441 8.77441C8.25878 8.79004 8.25 8.81123 8.25 8.83333V33.8333C8.25 33.8554 8.25878 33.8766 8.27441 33.8923C8.29003 33.9079 8.31123 33.9167 8.33333 33.9167H41.6667C41.6888 33.9167 41.71 33.9079 41.7256 33.8923C41.7412 33.8766 41.75 33.8554 41.75 33.8333V8.83333C41.75 8.81123 41.7412 8.79003 41.7256 8.77441C41.71 8.75878 41.6888 8.75 41.6667 8.75H8.33333ZM29.6449 37.9167H41.6667C42.7496 37.9167 43.7882 37.4865 44.554 36.7207C45.3198 35.9549 45.75 34.9163 45.75 33.8333V8.83333C45.75 7.75037 45.3198 6.71176 44.554 5.94598C43.7882 5.18021 42.7496 4.75 41.6667 4.75H8.33333C7.25037 4.75 6.21175 5.18021 5.44598 5.94598C4.68021 6.71175 4.25 7.75037 4.25 8.83333V33.8333C4.25 34.9163 4.68021 35.9549 5.44598 36.7207C6.21176 37.4865 7.25037 37.9167 8.33333 37.9167H20.3551L19.2718 42.25H16.6667C15.5621 42.25 14.6667 43.1454 14.6667 44.25C14.6667 45.3546 15.5621 46.25 16.6667 46.25H33.3333C34.4379 46.25 35.3333 45.3546 35.3333 44.25C35.3333 43.1454 34.4379 42.25 33.3333 42.25H30.7282L29.6449 37.9167ZM25.5218 37.9167H24.4782L23.3949 42.25H26.6051L25.5218 37.9167Z" fill="#4D97B5"/>
</svg>
